<?xml version="1.0" encoding="iso-8859-1"?>
<!-- Generator: Adobe Illustrator 19.0.0, SVG Export Plug-In . SVG Version: 6.00 Build 0)  -->
<svg version="1.1" id="Layer_1" xmlns="http://www.w3.org/2000/svg" xmlns:xlink="http://www.w3.org/1999/xlink" x="0px" y="0px"
	 viewBox="0 0 512.001 512.001" style="enable-background:new 0 0 512.001 512.001;" xml:space="preserve">
<path style="fill:#3D6DEB;" d="M502.681,4.682c-10.282-7.713-24.869-5.627-32.582,4.655L186.183,387.89v-77.575L326.76,122.878
	c2.819,9.68,11.742,16.759,22.331,16.759c12.853,0,23.273-10.42,23.273-23.273c0-15.253-2.979-29.814-8.339-43.172l26.965-35.955
	c7.713-10.282,5.627-24.869-4.655-32.582c-10.283-7.713-24.869-5.627-32.582,4.655L336.436,32.4
	c-20.911-20.042-49.249-32.397-80.435-32.397c-64.163,0-116.363,52.2-116.363,116.363v178.436L4.666,474.764
	c-7.713,10.282-5.629,24.869,4.655,32.582c4.186,3.14,9.086,4.656,13.945,4.656c7.076,0,14.064-3.215,18.637-9.311l97.736-130.314
	v23.26c0,15.259,2.982,29.825,8.344,43.189l-26.953,35.938c-7.713,10.282-5.629,24.869,4.655,32.582
	c4.186,3.14,9.086,4.656,13.945,4.656c7.076,0,14.064-3.215,18.637-9.311l17.31-23.079C196.488,499.65,224.82,512,256.001,512
	c64.163,0,116.363-52.2,116.363-116.363c0-12.853-10.42-23.273-23.273-23.273c-12.853,0-23.273,10.42-23.273,23.273
	c0,38.497-31.32,69.818-69.818,69.818c-20.739,0-39.383-9.098-52.182-23.502L507.336,37.264
	C515.048,26.981,512.963,12.393,502.681,4.682z M186.183,116.366c0-38.498,31.32-69.818,69.818-69.818
	c20.744,0,39.393,9.103,52.193,23.513L186.183,232.74V116.366L186.183,116.366z"/>
<g>
</g>
<g>
</g>
<g>
</g>
<g>
</g>
<g>
</g>
<g>
</g>
<g>
</g>
<g>
</g>
<g>
</g>
<g>
</g>
<g>
</g>
<g>
</g>
<g>
</g>
<g>
</g>
<g>
</g>
</svg>
